<?xml version="1.0" encoding="UTF-8" standalone="no"?>
<svg
   xmlns:dc="http://purl.org/dc/elements/1.1/"
   xmlns:cc="http://creativecommons.org/ns#"
   xmlns:rdf="http://www.w3.org/1999/02/22-rdf-syntax-ns#"
   xmlns:svg="http://www.w3.org/2000/svg"
   xmlns="http://www.w3.org/2000/svg"
   xmlns:xlink="http://www.w3.org/1999/xlink"
   xmlns:sodipodi="http://sodipodi.sourceforge.net/DTD/sodipodi-0.dtd"
   xmlns:inkscape="http://www.inkscape.org/namespaces/inkscape"
   width="16"
   height="16"
   version="1.1"
   id="svg10"
   sodipodi:docname="application-x-cd-image.svg"
   inkscape:version="0.92.3 (2405546, 2018-03-11)">
  <metadata
     id="metadata16">
    <rdf:RDF>
      <cc:Work
         rdf:about="">
        <dc:format>image/svg+xml</dc:format>
        <dc:type
           rdf:resource="http://purl.org/dc/dcmitype/StillImage" />
      </cc:Work>
    </rdf:RDF>
  </metadata>
  <defs
     id="defs14">
    <linearGradient
       inkscape:collect="always"
       id="linearGradient1404">
      <stop
         style="stop-color:#ffffff;stop-opacity:1;"
         offset="0"
         id="stop1400" />
      <stop
         id="stop1408"
         offset="0.53432417"
         style="stop-color:#fd887b;stop-opacity:0.48087433" />
      <stop
         style="stop-color:#0043ff;stop-opacity:0.66120219"
         offset="0.58705157"
         id="stop1410" />
      <stop
         id="stop1412"
         offset="0.77058417"
         style="stop-color:#00dcff;stop-opacity:0.9254902" />
      <stop
         style="stop-color:#00efff;stop-opacity:0.61748636"
         offset="0.77058417"
         id="stop1414" />
      <stop
         id="stop1418"
         offset="0.92430604"
         style="stop-color:#c3ff00;stop-opacity:0.90980393" />
      <stop
         style="stop-color:#f2f1d5;stop-opacity:0.67213112"
         offset="0.92430604"
         id="stop1420" />
      <stop
         style="stop-color:#ffffff;stop-opacity:0.60109288"
         offset="1"
         id="stop1402" />
    </linearGradient>
    <radialGradient
       inkscape:collect="always"
       xlink:href="#linearGradient1404"
       id="radialGradient1406"
       cx="8"
       cy="10"
       fx="8"
       fy="10"
       r="4"
       gradientUnits="userSpaceOnUse" />
  </defs>
  <sodipodi:namedview
     pagecolor="#ffffff"
     bordercolor="#666666"
     borderopacity="1"
     objecttolerance="10"
     gridtolerance="10"
     guidetolerance="10"
     inkscape:pageopacity="0"
     inkscape:pageshadow="2"
     inkscape:window-width="1366"
     inkscape:window-height="699"
     id="namedview12"
     showgrid="false"
     inkscape:zoom="20.85965"
     inkscape:cx="8.5149805"
     inkscape:cy="5.6415903"
     inkscape:window-x="0"
     inkscape:window-y="0"
     inkscape:window-maximized="1"
     inkscape:current-layer="svg10" />
  <path
     style="fill:#50a9ce;fill-opacity:1"
     d="m2.75 1c-0.4172 0-0.75 0.3328-0.75 0.75v13.5c0 0.417 0.3328 0.75 0.75 0.75h10.5c0.418 0 0.75-0.332 0.75-0.75v-9.25l-4.125-0.875-0.875-4.125z"
     id="path2" />
  <path
     fill="#fff"
     opacity=".5"
     d="m8 7.9004c-1.1578 0-2.0996 0.9418-2.0996 2.0996 0 1.158 0.9418 2.1 2.0996 2.1s2.1-0.942 2.1-2.1c0-1.1578-0.9422-2.0996-2.1-2.0996zm0 1.0996c0.5521 0 1 0.4479 1 1 0 0.552-0.4479 1-1 1s-1-0.448-1-1c0-0.5521 0.4479-1 1-1z"
     id="path4"
     style="fill:#ffffff;fill-opacity:1" />
  <path
     style="fill:#3b738a;fill-opacity:1"
     d="m9 1v4.1667c0 0.4584 0.3749 0.8333 0.8333 0.8333h4.1667z"
     id="path6" />
  <path
     fill="#fff"
     d="m8 6c-2.2164 0-4 1.7836-4 4 0 2.216 1.7836 4 4 4 2.216 0 4-1.784 4-4 0-2.2164-1.784-4-4-4zm0 2c1.1062 0 2 0.8938 2 2 0 1.106-0.8938 2-2 2s-2-0.894-2-2c0-1.1062 0.8938-2 2-2z"
     id="path8"
     style="fill-opacity:1;fill:url(#radialGradient1406)" />
</svg>
